<svg xmlns="http://www.w3.org/2000/svg" aria-hidden="true" style="position:absolute;width:0;height:0;overflow:hidden">
  <defs>
    <symbol id="icon-icon-1" viewBox="0 0 73 32">
      <path fill="#f4f4fd" d="M2.133.133H70.4c.515 0 .933.418.933.933v27.733c0 .515-.418.933-.933.933H2.133c-.515 0-.933-.418-.933-.933V1.066c0-.515.418-.933.933-.933z" style="fill:var(--color1, #f4f4fd)"/>
      <path fill="#2e2f42" d="m44.146 18.185-4.503-4.536.5-2.462c.129.05.266.077.405.078h.003c.636.008 1.157-.502 1.165-1.138s-.502-1.157-1.138-1.165c-.636-.008-1.158.502-1.165 1.138-.002.136.021.271.067.4l-2.645.323-4.315-4.338a.2815.2815 0 0 0-.201-.085c-.075 0-.146.03-.199.083l-.807.802a.2843.2843 0 0 0 0 .402l.434.44c-1.682 3.092-1.135 6.921 1.344 9.42.023.022.049.039.078.052-.018.096-.027.194-.028.292v3.3h-3.413c-.785.001-1.421.637-1.422 1.422v.569c0 .157.127.284.285.284h13.085c.157 0 .284-.127.284-.284v-.569c-.001-.785-.637-1.421-1.422-1.422h-3.413v-1.462c.535.112 1.079.169 1.626.171a7.9167 7.9167 0 0 0 3.755-.951l.436.439c.053.054.125.085.201.085.075 0 .146-.03.199-.083l.807-.802a.2843.2843 0 0 0 0-.402zm-3.997-8.461c.223-.222.583-.221.805.002s.221.583-.002.804a.5686.5686 0 0 1-.401.166h-.002a.57.57 0 0 1-.566-.572c.001-.15.061-.294.168-.4h-.001zm-.669 1.869-.319 1.571-.627-.631.946-.94zm-.323-.481-1.024 1.018-.792-.796 1.816-.222zm1.378 10.648c.471 0 .853.382.853.853v.284H28.873v-.284c0-.471.382-.853.853-.853h10.809zm-3.982-1.138v.569h-2.845v-.569h2.845zm-2.844-.569v-2.162c0-.69.638-1.252 1.422-1.252s1.422.561 1.422 1.252v2.162h-2.845zm3.413-.904v-1.257c0-1.004-.893-1.82-1.991-1.82-.71-.011-1.374.35-1.75.953-2.164-2.279-2.651-5.677-1.215-8.473l9.921 9.978a7.3696 7.3696 0 0 1-4.965.62zm6.021-.365L31.913 7.488l.402-.401 4.232 4.256c.002 0 .003.004.005.005l6.994 7.035-.404.401z" style="fill:var(--color2, #2e2f42)"/>
      <path fill="#4d5ae5" d="M35.134 17.209h-.003c-.471-.001-.854.381-.854.852s.381.854.852.855h.002c.471.001.854-.381.855-.852s-.381-.854-.852-.855zm.199 1.055a.2878.2878 0 0 1-.202.083.2847.2847 0 0 1-.283-.286.285.285 0 0 1 .283-.283c.157.001.284.129.283.286a.2884.2884 0 0 1-.084.2h.003z" style="fill:var(--color3, #4d5ae5)"/>
    </symbol>
    <symbol id="icon-icon-2" viewBox="0 0 75 32">
      <path fill="#f4f4fd" d="M1.143.143h73.143c.552 0 1 .448 1 1v29.714c0 .552-.448 1-1 1H1.143c-.552 0-1-.448-1-1V1.143c0-.552.448-1 1-1z" style="fill:var(--color1, #f4f4fd)"/>
      <path fill="#2e2f42" d="M46.455 15.601c-.001-4.83-3.917-8.745-8.747-8.744s-8.745 3.917-8.744 8.747c.001 3.805 2.461 7.172 6.085 8.329.035.011.071.016.107.016.069 0 .137-.019.196-.054a.3653.3653 0 0 0 .162-.204l2.209-7c.604-.003 1.091-.495 1.087-1.099s-.495-1.091-1.099-1.088c-.162.001-.323.038-.469.109l-2.918-2.918a.3637.3637 0 0 0-.515.009.3629.3629 0 0 0 0 .506l2.916 2.919c-.224.457-.096 1.008.306 1.319l-2.104 6.67c-4.159-1.532-6.288-6.145-4.756-10.304s6.145-6.288 10.304-4.756c4.159 1.532 6.288 6.145 4.756 10.304a8.0242 8.0242 0 0 1-4.264 4.556l-.227-1.071a.3637.3637 0 0 0-.432-.281.3553.3553 0 0 0-.167.085l-2.193 1.957a.363.363 0 0 0-.03.514c.044.049.099.085.162.105l2.799.893c.191.061.397-.044.458-.235a.3712.3712 0 0 0 .01-.187l-.223-1.051c3.237-1.365 5.338-4.538 5.331-8.051zm-8.745-.365c.201 0 .365.163.365.364s-.163.364-.365.364-.364-.163-.364-.364c0-.201.163-.364.364-.364zm1.2 8.494 1.248-1.113.345 1.623-1.593-.51z" style="fill:var(--color2, #2e2f42)"/>
      <path fill="#4d5ae5" d="M37.345 8.677v.729c0 .201.163.364.364.364s.365-.163.365-.364v-.729c0-.201-.163-.364-.365-.364s-.364.163-.364.364zM30.786 15.236a.364.364 0 0 0 0 .728h.729a.364.364 0 0 0 0-.728h-.729zM44.633 15.965c.201 0 .365-.163.365-.364s-.163-.364-.365-.364h-.729a.364.364 0 0 0 0 .728h.729z" style="fill:var(--color3, #4d5ae5)"/>
    </symbol>
    <symbol id="icon-icon-3" viewBox="0 0 75 32">
      <path fill="#f4f4fd" d="M1.143.143h73.143c.552 0 1 .448 1 1v29.714c0 .552-.448 1-1 1H1.143c-.552 0-1-.448-1-1V1.143c0-.552.448-1 1-1z" style="fill:var(--color1, #f4f4fd)"/>
      <path fill="#4d5ae5" d="M37.1 15.408h.609v2.741H37.1v-2.741zM39.537 16.627h.609v1.523h-.609v-1.523zM34.663 17.541h.609v.609h-.609v-.609zM32.836 17.236h.609v.914h-.609v-.914z" style="fill:var(--color3, #4d5ae5)"/>
      <path fill="#2e2f42" d="M29.485 23.023h14.621c.505 0 .914-.409.914-.914v-1.218c0-.505-.409-.914-.914-.914h-.305v-7.596l1.73-1.639a.9193.9193 0 0 0 1.064-1.467c-.313-.32-.812-.368-1.18-.113s-.499.738-.31 1.144l-1.304 1.236v-.703c0-.505-.409-.914-.914-.914H30.703c-.505 0-.914.409-.914.914v9.138h-.305c-.505 0-.914.409-.914.914v1.218c0 .505.409.914.914.914zM45.934 9.621c.168 0 .305.136.305.305s-.136.305-.305.305c-.168 0-.305-.136-.305-.305s.136-.305.305-.305zm-15.535 1.218c0-.168.136-.305.305-.305h12.184c.168 0 .305.136.305.305v1.279l-.609.579v-1.249a.305.305 0 0 0-.305-.305H31.313a.305.305 0 0 0-.305.305v7.615c0 .168.136.305.305.305h10.966a.305.305 0 0 0 .305-.305v-5.528l.609-.577v7.019H30.4v-9.138zm2.742 3.96c-.412-.001-.774.273-.884.671s.06.819.415 1.029c.354.21.806.157 1.102-.129l1.059.531c.123.062.272.033.364-.07l2.251-2.532 2.213 1.658c.119.089.285.079.392-.022l1.923-1.822v4.646H31.619v-7.006h10.357v1.52l-2.155 2.041-2.231-1.673a.3044.3044 0 0 0-.41.041l-2.282 2.567-.853-.427c.006-.037.01-.073.012-.111 0-.505-.409-.914-.914-.914zm.304.914a.305.305 0 1 1-.61 0c0-.169.136-.305.305-.305.168 0 .305.136.305.305zm1.828 4.874h3.046v.305a.305.305 0 0 1-.305.305h-2.437a.305.305 0 0 1-.305-.305v-.305zm-6.092.304c0-.168.137-.305.305-.305h5.178v.305c0 .505.409.914.914.914h2.437c.505 0 .914-.409.914-.914v-.305h5.178c.168 0 .305.136.305.305v1.218c0 .168-.137.305-.305.305H29.486a.305.305 0 0 1-.305-.305v-1.218z" style="fill:var(--color2, #2e2f42)"/>
    </symbol>
    <symbol id="icon-icon-4" viewBox="0 0 75 32">
      <path fill="#f4f4fd" d="M1.143.143h73.143c.552 0 1 .448 1 1v29.714c0 .552-.448 1-1 1H1.143c-.552 0-1-.448-1-1V1.143c0-.552.448-1 1-1z" style="fill:var(--color1, #f4f4fd)"/>
      <path fill="#4d5ae5" d="M46.842 9.442a.3052.3052 0 0 0-.246-.207l-1.091-.159-.489-.989c-.103-.208-.444-.208-.547 0l-.489.989-1.092.159c-.115.017-.21.097-.246.207s-.006.232.077.312l.79.77-.187 1.087c-.019.114.027.23.121.298.095.069.219.077.321.023l.977-.514.977.514c.044.023.093.035.142.035.063 0 .126-.02.179-.058a.3035.3035 0 0 0 .121-.298l-.186-1.087.79-.77a.304.304 0 0 0 .077-.312zm-1.407.759a.3041.3041 0 0 0-.087.27l.109.637-.572-.3c-.045-.024-.093-.035-.142-.035s-.097.012-.142.035l-.572.3.109-.637a.3069.3069 0 0 0-.087-.27l-.463-.451.639-.093a.303.303 0 0 0 .229-.167l.286-.579.286.579c.045.09.13.152.23.167l.639.093-.462.451zM43.505 18.584h-.609v.61h.609v-.61zM43.505 19.803h-.609v.61h.609v-.61z" style="fill:var(--color3, #4d5ae5)"/>
      <path fill="#4d5ae5" d="M44.114 19.194h-.609v.61h.609v-.61zM42.895 19.194h-.61v.61h.61v-.61zM41.371 21.937h-.609v.61h.609v-.61zM41.371 23.156h-.609v.61h.609v-.61zM41.981 22.546h-.61v.61h.61v-.61zM40.762 22.546h-.61v.61h.61v-.61zM37.714 20.718h-.609v.61h.609v-.61zM37.714 21.937h-.609v.61h.609v-.61zM38.324 21.327h-.609v.61h.609v-.61zM37.105 21.327h-.61v.61h.61v-.61zM31.924 10.355h-.609v.61h.609v-.61zM31.924 11.575h-.609v.61h.609v-.61zM32.533 10.965h-.609v.61h.609v-.61zM31.314 10.965h-.61v.61h.61v-.61z" style="fill:var(--color3, #4d5ae5)"/>
      <path fill="#2e2f42" d="M42.694 14.948c-.164-.222-.405-.364-.679-.403-.275-.039-.546.033-.766.201l-.715.549-1.085.81-.776-.309c1.383-.621 2.351-2.005 2.351-3.611 0-2.185-1.784-3.962-3.978-3.962S33.068 10 33.068 12.185c0 .792.237 1.528.64 2.148l-1.579-.014h-.003c-.005 0-.009.002-.013.003-.03.001-.06.007-.089.018-.007.003-.015.004-.022.008-.003.002-.007.002-.011.004l-1.847.912h-.001l-1.082.52a.216.216 0 0 0-.036.02c-.431.287-.578.851-.342 1.312.126.245.34.425.603.508a1.0167 1.0167 0 0 0 .787-.074l.793-.422 1.294-.668.775-.005-3.11 3.095s-.001 0-.001.001l-.765.762c-.181.18-.28.418-.28.673s.099.493.28.674c.185.185.43.277.674.277s.488-.093.675-.277l.751-.748.995-.743.515.513-1.007 1.002s-.001 0-.001.001l-.765.762c-.181.18-.28.418-.28.673s.099.493.28.674c.186.185.43.277.674.277s.489-.093.674-.277l1.99-1.981s0-.001.001-.001l.577-.571-.002-.002c.004-.004.009-.005.013-.009l2.952-3.233 1.983.282c.014.002.029.003.043.003.037 0 .073-.009.107-.022.01-.004.019-.009.028-.013.011-.006.023-.009.033-.015l1.836-1.219c.007-.005.01-.012.017-.017s.016-.008.023-.015l.727-.681c.378-.354.43-.934.121-1.35zm-12.905 2.064a.4077.4077 0 0 1-.319.03.4076.4076 0 0 1-.122-.719l.751-.361.181.528.076.222-.567.301zm1.998-1.045-.885.457-.251-.733 1.158-.572-.023.848zm8.628-3.783c0 .525-.125 1.02-.342 1.463l-2.389-1.085a1.064 1.064 0 0 0-.45-.793l.837-2.777c1.359.432 2.345 1.7 2.345 3.193zm-6.736 0c0-1.848 1.511-3.352 3.368-3.352.145 0 .286.012.426.03l-.818 2.716c-.011 0-.021-.003-.033-.003-.59 0-1.07.479-1.07 1.067s.48 1.067 1.07 1.067c.397 0 .74-.219.925-.54l2.207 1.003c-.614.826-1.597 1.366-2.707 1.366-1.857 0-3.368-1.504-3.368-3.352zm3.404.457c0 .252-.207.457-.461.457s-.461-.205-.461-.457.207-.457.461-.457.461.205.461.457zm-7.103 8.585c-.135.134-.354.134-.488 0-.065-.065-.101-.151-.101-.242s.036-.177.101-.241l.55-.548.486.484-.548.546zm1.836 2.134c-.135.134-.354.134-.488 0-.065-.065-.101-.151-.101-.242s.035-.176.101-.241l.55-.548.487.484-.548.546zm1.99-1.982s-.001 0-.001.001l-1.009 1.006-.487-.484 1.008-1.003s.001 0 .001-.001c.023-.023.037-.05.051-.077.004-.008.012-.015.015-.023.009-.023.011-.049.015-.073.002-.014.008-.027.008-.041 0-.02-.007-.04-.012-.06-.004-.018-.004-.037-.011-.055-.012-.029-.031-.054-.052-.079-.006-.007-.008-.015-.014-.022s0-.001-.001-.001l-.918-.914c-.01-.01-.022-.014-.033-.022-.016-.012-.032-.024-.05-.033s-.035-.014-.053-.019a.2283.2283 0 0 0-.059-.011c-.019-.001-.036.001-.055.003-.02.002-.039.005-.059.012s-.036.016-.054.026c-.011.006-.024.009-.035.016l-1.013.756-.515-.513 1.371-1.363 2.492 2.451-.53.525zm3.896-4.01c-.009-.001-.017.002-.026.002a.293.293 0 0 0-.066.004c-.017.003-.034.006-.05.012-.019.007-.037.016-.055.027s-.033.021-.047.035c-.007.006-.016.009-.023.017l-2.685 2.94-2.473-2.432 1.619-1.61c.119-.119.12-.312.001-.431a.3022.3022 0 0 0-.218-.089l-1.268.008.016-.919 1.774.015c.723.739 1.731 1.2 2.847 1.2.25 0 .494-.026.731-.07.023.018.045.037.074.049l1.377.549.087.433.102.506-1.716-.244zm2.31.102-.179-.89.827-.617.217.287.325.431-1.189.789zm2.145-1.618-.479.449-.532-.706.475-.364c.089-.068.2-.096.31-.082.111.016.208.073.275.162.124.167.103.399-.049.541z" style="fill:var(--color2, #2e2f42)"/>
      <path fill="#2e2f42" d="m36.344 17.454-1.225-1.219a.3036.3036 0 0 0-.43 0l-1.224 1.219c-.057.058-.089.135-.089.216s.032.159.089.216l1.224 1.219c.059.059.137.089.215.089s.156-.03.215-.089l1.225-1.219c.057-.057.09-.135.09-.216s-.032-.159-.09-.216zm-1.439 1.005-.792-.789.792-.789.793.789-.793.789zM38.38 9.755l-.147.592c.041.01.993.258.993 1.228h.609c0-1.153-.952-1.695-1.455-1.82zM39.835 12.184h-.609v.61h.609v-.61z" style="fill:var(--color2, #2e2f42)"/>
    </symbol>
  </defs>
</svg>
